<?xml version="1.0" encoding="UTF-8" standalone="no"?>
<svg
   xmlns:dc="http://purl.org/dc/elements/1.1/"
   xmlns:cc="http://creativecommons.org/ns#"
   xmlns:rdf="http://www.w3.org/1999/02/22-rdf-syntax-ns#"
   xmlns:svg="http://www.w3.org/2000/svg"
   xmlns="http://www.w3.org/2000/svg"
   xmlns:xlink="http://www.w3.org/1999/xlink"
   xmlns:sodipodi="http://sodipodi.sourceforge.net/DTD/sodipodi-0.dtd"
   xmlns:inkscape="http://www.inkscape.org/namespaces/inkscape"
   height="48"
   width="48"
   version="1.1"
   id="svg8431"
   inkscape:version="0.48.4 r9939"
   sodipodi:docname="move_pad.svg">
  <metadata
     id="metadata8454">
    <rdf:RDF>
      <cc:Work
         rdf:about="">
        <dc:format>image/svg+xml</dc:format>
        <dc:type
           rdf:resource="http://purl.org/dc/dcmitype/StillImage" />
        <dc:title></dc:title>
      </cc:Work>
    </rdf:RDF>
  </metadata>
  <sodipodi:namedview
     pagecolor="#ffffff"
     bordercolor="#666666"
     borderopacity="1"
     objecttolerance="10"
     gridtolerance="10"
     guidetolerance="10"
     inkscape:pageopacity="0"
     inkscape:pageshadow="2"
     inkscape:window-width="1598"
     inkscape:window-height="822"
     id="namedview8452"
     showgrid="true"
     inkscape:zoom="11.313708"
     inkscape:cx="31.011361"
     inkscape:cy="21.904167"
     inkscape:window-x="0"
     inkscape:window-y="28"
     inkscape:window-maximized="1"
     inkscape:current-layer="svg8431">
    <inkscape:grid
       type="xygrid"
       id="grid8552" />
  </sodipodi:namedview>
  <defs
     id="defs8433">
    <filter
       id="a"
       height="1.2769"
       width="1.2769"
       color-interpolation-filters="sRGB"
       y="-.13847"
       x="-.13847">
      <feGaussianBlur
         stdDeviation="0.11539203"
         id="feGaussianBlur8436" />
    </filter>
    <linearGradient
       gradientUnits="userSpaceOnUse"
       y2="42.5"
       x2="31.5"
       y1="35.75"
       x1="33"
       id="linearGradient2246"
       xlink:href="#linearGradient2240"
       inkscape:collect="always" />
    <linearGradient
       gradientUnits="userSpaceOnUse"
       y2="42.5"
       x2="31.5"
       y1="35.75"
       x1="33"
       id="linearGradient2238"
       xlink:href="#linearGradient2232"
       inkscape:collect="always" />
    <radialGradient
       gradientUnits="userSpaceOnUse"
       gradientTransform="matrix(-0.01290127,1.685197,1.713082,0.01311475,-1.041499,-10.11571)"
       r="19.0625"
       fy="11.132236"
       fx="16.563837"
       cy="11.132236"
       cx="16.563837"
       id="radialGradient4997"
       xlink:href="#linearGradient4991"
       inkscape:collect="always" />
    <linearGradient
       y2="12.583769"
       x2="12.624337"
       y1="11.39502"
       x1="17.060806"
       gradientTransform="matrix(0,-1.171926,1.171926,0,1.782801,54.10111)"
       gradientUnits="userSpaceOnUse"
       id="linearGradient1764"
       xlink:href="#linearGradient2187"
       inkscape:collect="always" />
    <linearGradient
       inkscape:collect="always"
       id="linearGradient2187">
      <stop
         style="stop-color:#ffffff;stop-opacity:1;"
         offset="0"
         id="stop2189" />
      <stop
         style="stop-color:#ffffff;stop-opacity:0;"
         offset="1"
         id="stop2191" />
    </linearGradient>
    <radialGradient
       gradientUnits="userSpaceOnUse"
       gradientTransform="matrix(1,0,0,0.536723,0,16.87306)"
       r="15.644737"
       fy="36.421127"
       fx="24.837126"
       cy="36.421127"
       cx="24.837126"
       id="radialGradient8668"
       xlink:href="#linearGradient8662"
       inkscape:collect="always" />
    <linearGradient
       id="linearGradient8662"
       inkscape:collect="always">
      <stop
         id="stop8664"
         offset="0"
         style="stop-color:#000000;stop-opacity:1;" />
      <stop
         id="stop8666"
         offset="1"
         style="stop-color:#000000;stop-opacity:0;" />
    </linearGradient>
    <linearGradient
       id="linearGradient4991"
       inkscape:collect="always">
      <stop
         id="stop4993"
         offset="0"
         style="stop-color:#ffffff;stop-opacity:1;" />
      <stop
         id="stop4995"
         offset="1"
         style="stop-color:#ffffff;stop-opacity:0;" />
    </linearGradient>
    <linearGradient
       id="linearGradient2232"
       inkscape:collect="always">
      <stop
         id="stop2234"
         offset="0"
         style="stop-color:#788600;stop-opacity:1;" />
      <stop
         id="stop2236"
         offset="1"
         style="stop-color:#788600;stop-opacity:0;" />
    </linearGradient>
    <linearGradient
       id="linearGradient2240"
       inkscape:collect="always">
      <stop
         id="stop2242"
         offset="0"
         style="stop-color:#99b00b;stop-opacity:1;" />
      <stop
         id="stop2244"
         offset="1"
         style="stop-color:#99b00b;stop-opacity:0;" />
    </linearGradient>
    <inkscape:perspective
       id="perspective31"
       inkscape:persp3d-origin="24 : 16 : 1"
       inkscape:vp_z="48 : 24 : 1"
       inkscape:vp_y="0 : 1000 : 0"
       inkscape:vp_x="0 : 24 : 1"
       sodipodi:type="inkscape:persp3d" />
  </defs>
  <path
     inkscape:connector-curvature="0"
     id="path3763"
     d="m 15,2.03125 c -4.95522,0 -8.96875,4.0135285 -8.96875,8.96875 0,4.955221 4.01353,8.96875 8.96875,8.96875 4.955222,0 8.96875,-4.013529 8.96875,-8.96875 C 23.96875,6.0447785 19.955222,2.03125 15,2.03125 z M 15,7 c 2.209139,0 4,1.7908611 4,4 0,2.209139 -1.790861,4 -4,4 -2.209139,0 -4,-1.790861 -4,-4 0,-2.2091389 1.790861,-4 4,-4 z"
     style="fill:#008000;fill-opacity:0.69803922;stroke:#008000;stroke-width:2.05555582;stroke-linecap:round;stroke-linejoin:round;stroke-miterlimit:4;stroke-opacity:1;stroke-dasharray:none" />
  <path
     inkscape:connector-curvature="0"
     style="fill:#008000;fill-opacity:0.69803922;stroke:#008000;stroke-width:2.05555582;stroke-linecap:round;stroke-linejoin:round;stroke-miterlimit:4;stroke-opacity:1;stroke-dasharray:none"
     d="m 32.996528,27.034722 c -4.95522,0 -8.96875,4.013529 -8.96875,8.96875 0,4.955221 4.01353,8.968749 8.96875,8.968749 4.955223,0 8.968751,-4.013528 8.968751,-8.968749 0,-4.955221 -4.013528,-8.96875 -8.968751,-8.96875 z m 0,4.96875 c 2.209139,0 4.000001,1.790861 4.000001,4 0,2.209139 -1.790862,4 -4.000001,4 -2.209139,0 -4,-1.790861 -4,-4 0,-2.209139 1.790861,-4 4,-4 z"
     id="path9686" />
  <g
     id="g18103"
     transform="matrix(0.99803029,-0.06273388,0.06273388,0.99803029,-1.1234672,3.8010369)">
    <path
       id="path8556"
       style="fill:#ff0000;fill-opacity:1;stroke:#a40000;stroke-width:0.85800409"
       d="M 36.506057,17.56816 C 36.910935,7.6470615 34.020827,5.0938325 25.186951,5.7985708 c 8.692315,2.0573826 8.141898,4.4370302 7.441561,11.3327012 l -3.252691,-0.40484 4.396086,7.027225 5.890838,-5.831425 z"
       inkscape:connector-curvature="0"
       sodipodi:nodetypes="ccccccc" />
    <path
       sodipodi:nodetypes="ccccccc"
       inkscape:connector-curvature="0"
       d="M 36.506057,17.56816 C 36.910935,7.6470615 34.020827,5.0938325 25.186951,5.7985708 c 8.692315,2.0573826 8.141898,4.4370302 7.441561,11.3327012 l -3.252691,-0.40484 4.396086,7.027225 5.890838,-5.831425 z"
       style="fill:#ff0000;fill-opacity:1;stroke:#a40000;stroke-width:0.85800409"
       id="path17320" />
    <path
       style="font-size:medium;font-style:normal;font-variant:normal;font-weight:normal;font-stretch:normal;text-indent:0;text-align:start;text-decoration:none;line-height:normal;letter-spacing:normal;word-spacing:normal;text-transform:none;direction:ltr;block-progression:tb;writing-mode:lr-tb;text-anchor:start;baseline-shift:baseline;opacity:0.5;color:#000000;fill:#eeeeec;fill-opacity:1;fill-rule:nonzero;stroke:none;stroke-width:1;marker:none;visibility:visible;display:inline;overflow:visible;enable-background:accumulate;font-family:Sans;-inkscape-font-specification:Sans"
       d="m 27.986752,6.1256701 c 0,0 1.569237,0.4810082 2.872625,1.2805797 1.772651,1.0874442 2.447581,2.7046222 2.54877,4.6726602 0.09267,1.802444 -0.267776,3.805528 -0.439395,5.51484 l -2.750001,-0.343751 3.625,5.8125 4.90625,-4.843749 -2.71875,-0.25 c 0.0768,-0.629345 0.276965,-2.601414 -0.03125,-5 C 35.818999,11.560155 35.483522,10.084066 34.71875,8.9062498 33.340936,6.784295 31.126944,6.1998687 27.986752,6.1256701 z m 5.731999,3.1243297 c 0.04746,0.069968 0.111279,0.1141538 0.156251,0.1875 0.62017,1.0114792 0.954912,2.3326022 1.125,3.6562502 0.340173,2.647296 0,5.21875 0,5.21875 l -0.09375,0.53125 1.625001,0.156251 -2.5,2.5 -1.843751,-2.999999 1.687501,0.218753 0.03125,-0.53125 c 0.140664,-1.715785 0.578869,-3.952065 0.46875,-6.09375 -0.05059,-0.983973 -0.271304,-1.952817 -0.656251,-2.8437552 z"
       id="path17324"
       inkscape:connector-curvature="0"
       sodipodi:nodetypes="csscccccssccsscccccccsc" />
  </g>
</svg>
