<?xml version="1.0" encoding="UTF-8" standalone="no"?>
<svg
   xmlns:dc="http://purl.org/dc/elements/1.1/"
   xmlns:cc="http://creativecommons.org/ns#"
   xmlns:rdf="http://www.w3.org/1999/02/22-rdf-syntax-ns#"
   xmlns:svg="http://www.w3.org/2000/svg"
   xmlns="http://www.w3.org/2000/svg"
   xmlns:sodipodi="http://sodipodi.sourceforge.net/DTD/sodipodi-0.dtd"
   xmlns:inkscape="http://www.inkscape.org/namespaces/inkscape"
   height="48"
   width="48"
   version="1.1"
   id="svg18970"
   inkscape:version="0.48.4 r9939"
   sodipodi:docname="move_text.svg">
  <metadata
     id="metadata18987">
    <rdf:RDF>
      <cc:Work
         rdf:about="">
        <dc:format>image/svg+xml</dc:format>
        <dc:type
           rdf:resource="http://purl.org/dc/dcmitype/StillImage" />
        <dc:title></dc:title>
      </cc:Work>
    </rdf:RDF>
  </metadata>
  <sodipodi:namedview
     pagecolor="#ffffff"
     bordercolor="#666666"
     borderopacity="1"
     objecttolerance="10"
     gridtolerance="10"
     guidetolerance="10"
     inkscape:pageopacity="0"
     inkscape:pageshadow="2"
     inkscape:window-width="1598"
     inkscape:window-height="822"
     id="namedview18985"
     showgrid="false"
     inkscape:zoom="9.8333333"
     inkscape:cx="34.662396"
     inkscape:cy="28.541287"
     inkscape:window-x="0"
     inkscape:window-y="28"
     inkscape:window-maximized="1"
     inkscape:current-layer="svg18970" />
  <defs
     id="defs18972">
    <filter
       id="a"
       color-interpolation-filters="sRGB">
      <feGaussianBlur
         stdDeviation="1.1026007"
         id="feGaussianBlur18975" />
    </filter>
  </defs>
  <g
     id="g19003"
     transform="matrix(1.1098933,0,0,1.075965,-4.1387372,-2.1944157)"
     style="fill-rule:evenodd">
    <path
       id="path19005"
       transform="matrix(0.47197,0,0,0.5148,61.766,17.137)"
       d="m -77.169,14.171 h 42.073 v 10.622 h -3.0052 l -4.5079,-5.3112 h -7.5131 v 27.884 l 6.0105,3.9834 v 2.6556 h -24.042 v -2.6556 l 6.0105,-3.9834 v -27.884 h -7.5131 l -4.5079,5.3112 h -3.0052 V 14.171 z"
       inkscape:connector-curvature="0"
       style="opacity:0.57422001;filter:url(#a)" />
    <path
       id="path19007"
       d="m 23.926,23.066 h 19.858 v 5.4684 h -1.418 l -2.128,-2.734 h -3.546 v 14.355 l 2.8368,2.0506 v 1.3671 h -11.347 v -1.367 l 2.8368,-2.0506 v -14.355 h -3.546 l -2.128,2.734 h -1.418 v -5.468 z"
       inkscape:connector-curvature="0"
       style="fill:#00009b" />
  </g>
  <g
     style="fill-rule:evenodd"
     transform="matrix(1.1098933,0,0,1.075965,-25.392974,-23.041873)"
     id="g19009">
    <path
       style="opacity:0.57422001;filter:url(#a)"
       inkscape:connector-curvature="0"
       d="m -77.169,14.171 h 42.073 v 10.622 h -3.0052 l -4.5079,-5.3112 h -7.5131 v 27.884 l 6.0105,3.9834 v 2.6556 h -24.042 v -2.6556 l 6.0105,-3.9834 v -27.884 h -7.5131 l -4.5079,5.3112 h -3.0052 V 14.171 z"
       transform="matrix(0.47197,0,0,0.5148,61.766,17.137)"
       id="path19011" />
    <path
       style="fill:#00009b"
       inkscape:connector-curvature="0"
       d="m 23.926,23.066 h 19.858 v 5.4684 h -1.418 l -2.128,-2.734 h -3.546 v 14.355 l 2.8368,2.0506 v 1.3671 h -11.347 v -1.367 l 2.8368,-2.0506 v -14.355 h -3.546 l -2.128,2.734 h -1.418 v -5.468 z"
       id="path19013" />
  </g>
  <g
     id="g18103"
     transform="matrix(0.92021476,-0.39141384,0.39141384,0.92021476,-2.5098229,12.530381)">
    <path
       id="path8556"
       style="fill:#ff0000;fill-opacity:1;stroke:#a40000;stroke-width:0.85800409"
       d="M 36.506057,17.56816 C 36.910935,7.6470615 34.020827,5.0938325 25.186951,5.7985708 c 8.692315,2.0573826 8.141898,4.4370302 7.441561,11.3327012 l -3.252691,-0.40484 4.396086,7.027225 5.890838,-5.831425 z"
       inkscape:connector-curvature="0"
       sodipodi:nodetypes="ccccccc" />
    <path
       sodipodi:nodetypes="ccccccc"
       inkscape:connector-curvature="0"
       d="M 36.506057,17.56816 C 36.910935,7.6470615 34.020827,5.0938325 25.186951,5.7985708 c 8.692315,2.0573826 8.141898,4.4370302 7.441561,11.3327012 l -3.252691,-0.40484 4.396086,7.027225 5.890838,-5.831425 z"
       style="fill:#ff0000;fill-opacity:1;stroke:#a40000;stroke-width:0.85800409"
       id="path17320" />
    <path
       style="font-size:medium;font-style:normal;font-variant:normal;font-weight:normal;font-stretch:normal;text-indent:0;text-align:start;text-decoration:none;line-height:normal;letter-spacing:normal;word-spacing:normal;text-transform:none;direction:ltr;block-progression:tb;writing-mode:lr-tb;text-anchor:start;baseline-shift:baseline;opacity:0.5;color:#000000;fill:#eeeeec;fill-opacity:1;fill-rule:nonzero;stroke:none;stroke-width:1;marker:none;visibility:visible;display:inline;overflow:visible;enable-background:accumulate;font-family:Sans;-inkscape-font-specification:Sans"
       d="m 27.986752,6.1256701 c 0,0 1.569237,0.4810082 2.872625,1.2805797 1.772651,1.0874442 2.447581,2.7046222 2.54877,4.6726602 0.09267,1.802444 -0.267776,3.805528 -0.439395,5.51484 l -2.750001,-0.343751 3.625,5.8125 4.90625,-4.843749 -2.71875,-0.25 c 0.0768,-0.629345 0.276965,-2.601414 -0.03125,-5 C 35.818999,11.560155 35.483522,10.084066 34.71875,8.9062498 33.340936,6.784295 31.126944,6.1998687 27.986752,6.1256701 z m 5.731999,3.1243297 c 0.04746,0.069968 0.111279,0.1141538 0.156251,0.1875 0.62017,1.0114792 0.954912,2.3326022 1.125,3.6562502 0.340173,2.647296 0,5.21875 0,5.21875 l -0.09375,0.53125 1.625001,0.156251 -2.5,2.5 -1.843751,-2.999999 1.687501,0.218753 0.03125,-0.53125 c 0.140664,-1.715785 0.578869,-3.952065 0.46875,-6.09375 -0.05059,-0.983973 -0.271304,-1.952817 -0.656251,-2.8437552 z"
       id="path17324"
       inkscape:connector-curvature="0"
       sodipodi:nodetypes="csscccccssccsscccccccsc" />
  </g>
</svg>
